<mxfile host="app.diagrams.net" agent="Mozilla/5.0 (Windows NT 10.0; Win64; x64) AppleWebKit/537.36 (KHTML, like Gecko) Chrome/133.0.0.0 Safari/537.36 OPR/118.0.0.0 (Edition std-2)" version="27.0.6">
  <diagram name="PÃ¡gina-1" id="n3nzuwro1qH9Sh52DPuT">
    <mxGraphModel grid="1" page="1" gridSize="10" guides="1" tooltips="1" connect="1" arrows="1" fold="1" pageScale="1" pageWidth="9999" pageHeight="9999" math="0" shadow="0">
      <root>
        <mxCell id="0" />
        <mxCell id="1" parent="0" />
        <mxCell id="0YgiuBvHB2j14HiR7saE-1" style="edgeStyle=elbowEdgeStyle;rounded=0;orthogonalLoop=1;jettySize=auto;html=1;elbow=vertical;curved=0;" edge="1" parent="1">
          <mxGeometry relative="1" as="geometry">
            <mxPoint x="795" y="590" as="sourcePoint" />
            <mxPoint x="1034.5000000000002" y="590" as="targetPoint" />
          </mxGeometry>
        </mxCell>
        <mxCell id="0YgiuBvHB2j14HiR7saE-2" style="edgeStyle=elbowEdgeStyle;rounded=0;orthogonalLoop=1;jettySize=auto;html=1;elbow=vertical;curved=0;" edge="1" parent="1">
          <mxGeometry relative="1" as="geometry">
            <mxPoint x="1034.6304347826085" y="530.0021739130435" as="sourcePoint" />
            <mxPoint x="1299.5" y="530.0021739130435" as="targetPoint" />
          </mxGeometry>
        </mxCell>
        <mxCell id="0YgiuBvHB2j14HiR7saE-3" value="JanelaSelecaoGrupo" style="shape=umlLifeline;perimeter=lifelinePerimeter;whiteSpace=wrap;html=1;container=0;dropTarget=0;collapsible=0;recursiveResize=0;outlineConnect=0;portConstraint=eastwest;newEdgeStyle={&quot;edgeStyle&quot;:&quot;elbowEdgeStyle&quot;,&quot;elbow&quot;:&quot;vertical&quot;,&quot;curved&quot;:0,&quot;rounded&quot;:0};" vertex="1" parent="1">
          <mxGeometry x="970" y="420" width="130" height="250" as="geometry" />
        </mxCell>
        <mxCell id="0YgiuBvHB2j14HiR7saE-4" value="" style="html=1;points=[];perimeter=orthogonalPerimeter;outlineConnect=0;targetShapes=umlLifeline;portConstraint=eastwest;newEdgeStyle={&quot;edgeStyle&quot;:&quot;elbowEdgeStyle&quot;,&quot;elbow&quot;:&quot;vertical&quot;,&quot;curved&quot;:0,&quot;rounded&quot;:0};" vertex="1" parent="0YgiuBvHB2j14HiR7saE-3">
          <mxGeometry x="60" y="90" width="10" height="140" as="geometry" />
        </mxCell>
        <mxCell id="0YgiuBvHB2j14HiR7saE-20" value="" style="shape=umlDestroy;whiteSpace=wrap;html=1;strokeWidth=3;targetShapes=umlLifeline;" vertex="1" parent="0YgiuBvHB2j14HiR7saE-3">
          <mxGeometry x="50" y="235" width="30" height="30" as="geometry" />
        </mxCell>
        <mxCell id="0YgiuBvHB2j14HiR7saE-5" value=": GrupoController" style="shape=umlLifeline;perimeter=lifelinePerimeter;whiteSpace=wrap;html=1;container=0;dropTarget=0;collapsible=0;recursiveResize=0;outlineConnect=0;portConstraint=eastwest;newEdgeStyle={&quot;edgeStyle&quot;:&quot;elbowEdgeStyle&quot;,&quot;elbow&quot;:&quot;vertical&quot;,&quot;curved&quot;:0,&quot;rounded&quot;:0};" vertex="1" parent="1">
          <mxGeometry x="1260" y="420" width="110" height="300" as="geometry" />
        </mxCell>
        <mxCell id="0YgiuBvHB2j14HiR7saE-6" value="" style="html=1;points=[];perimeter=orthogonalPerimeter;outlineConnect=0;targetShapes=umlLifeline;portConstraint=eastwest;newEdgeStyle={&quot;edgeStyle&quot;:&quot;elbowEdgeStyle&quot;,&quot;elbow&quot;:&quot;vertical&quot;,&quot;curved&quot;:0,&quot;rounded&quot;:0};" vertex="1" parent="0YgiuBvHB2j14HiR7saE-5">
          <mxGeometry x="50" y="110" width="10" height="100" as="geometry" />
        </mxCell>
        <mxCell id="0YgiuBvHB2j14HiR7saE-7" style="edgeStyle=orthogonalEdgeStyle;rounded=0;orthogonalLoop=1;jettySize=auto;html=1;curved=0;" edge="1" parent="1">
          <mxGeometry relative="1" as="geometry">
            <mxPoint x="790" y="500.0000000000002" as="sourcePoint" />
            <mxPoint x="1025" y="510" as="targetPoint" />
            <Array as="points">
              <mxPoint x="840" y="500" />
              <mxPoint x="840" y="510" />
              <mxPoint x="1025" y="510" />
            </Array>
          </mxGeometry>
        </mxCell>
        <mxCell id="0YgiuBvHB2j14HiR7saE-8" value="1: abrirListaGrupos()" style="text;whiteSpace=wrap;html=1;" vertex="1" parent="1">
          <mxGeometry x="860" y="480" width="140" height="40" as="geometry" />
        </mxCell>
        <mxCell id="0YgiuBvHB2j14HiR7saE-9" value="Menu" style="shape=umlLifeline;perimeter=lifelinePerimeter;whiteSpace=wrap;html=1;container=0;dropTarget=0;collapsible=0;recursiveResize=0;outlineConnect=0;portConstraint=eastwest;newEdgeStyle={&quot;edgeStyle&quot;:&quot;elbowEdgeStyle&quot;,&quot;elbow&quot;:&quot;vertical&quot;,&quot;curved&quot;:0,&quot;rounded&quot;:0};" vertex="1" parent="1">
          <mxGeometry x="740" y="420" width="100" height="300" as="geometry" />
        </mxCell>
        <mxCell id="0YgiuBvHB2j14HiR7saE-10" value="" style="html=1;points=[];perimeter=orthogonalPerimeter;outlineConnect=0;targetShapes=umlLifeline;portConstraint=eastwest;newEdgeStyle={&quot;edgeStyle&quot;:&quot;elbowEdgeStyle&quot;,&quot;elbow&quot;:&quot;vertical&quot;,&quot;curved&quot;:0,&quot;rounded&quot;:0};" vertex="1" parent="0YgiuBvHB2j14HiR7saE-9">
          <mxGeometry x="45" y="70" width="10" height="160" as="geometry" />
        </mxCell>
        <mxCell id="0YgiuBvHB2j14HiR7saE-11" value="2:listarGrupos()" style="text;whiteSpace=wrap;html=1;" vertex="1" parent="1">
          <mxGeometry x="1110" y="500" width="120" height="40" as="geometry" />
        </mxCell>
        <mxCell id="0YgiuBvHB2j14HiR7saE-12" value="" style="html=1;verticalAlign=bottom;endArrow=open;dashed=1;endSize=8;curved=0;rounded=0;" edge="1" parent="1">
          <mxGeometry relative="1" as="geometry">
            <mxPoint x="1300" y="569.57" as="sourcePoint" />
            <mxPoint x="1040" y="570" as="targetPoint" />
          </mxGeometry>
        </mxCell>
        <mxCell id="0YgiuBvHB2j14HiR7saE-13" value="3 : clicaGrupo(grupo)" style="text;whiteSpace=wrap;html=1;" vertex="1" parent="1">
          <mxGeometry x="850" y="560" width="140" height="40" as="geometry" />
        </mxCell>
        <mxCell id="0YgiuBvHB2j14HiR7saE-14" style="edgeStyle=elbowEdgeStyle;rounded=0;orthogonalLoop=1;jettySize=auto;html=1;elbow=vertical;curved=0;" edge="1" parent="1" source="0YgiuBvHB2j14HiR7saE-4">
          <mxGeometry relative="1" as="geometry">
            <mxPoint x="1050" y="610" as="sourcePoint" />
            <mxPoint x="1300" y="610" as="targetPoint" />
          </mxGeometry>
        </mxCell>
        <mxCell id="0YgiuBvHB2j14HiR7saE-15" value="4: grupoSelecionado(grupo)" style="text;whiteSpace=wrap;html=1;" vertex="1" parent="1">
          <mxGeometry x="1090" y="580" width="180" height="30" as="geometry" />
        </mxCell>
        <mxCell id="0YgiuBvHB2j14HiR7saE-16" value="Personagem" style="shape=umlLifeline;perimeter=lifelinePerimeter;whiteSpace=wrap;html=1;container=0;dropTarget=0;collapsible=0;recursiveResize=0;outlineConnect=0;portConstraint=eastwest;newEdgeStyle={&quot;edgeStyle&quot;:&quot;elbowEdgeStyle&quot;,&quot;elbow&quot;:&quot;vertical&quot;,&quot;curved&quot;:0,&quot;rounded&quot;:0};" vertex="1" parent="1">
          <mxGeometry x="1650" y="420" width="130" height="300" as="geometry" />
        </mxCell>
        <mxCell id="0YgiuBvHB2j14HiR7saE-17" value="" style="html=1;points=[];perimeter=orthogonalPerimeter;outlineConnect=0;targetShapes=umlLifeline;portConstraint=eastwest;newEdgeStyle={&quot;edgeStyle&quot;:&quot;elbowEdgeStyle&quot;,&quot;elbow&quot;:&quot;vertical&quot;,&quot;curved&quot;:0,&quot;rounded&quot;:0};" vertex="1" parent="0YgiuBvHB2j14HiR7saE-16">
          <mxGeometry x="60" y="250" width="10" height="20" as="geometry" />
        </mxCell>
        <mxCell id="0YgiuBvHB2j14HiR7saE-18" style="edgeStyle=elbowEdgeStyle;rounded=0;orthogonalLoop=1;jettySize=auto;html=1;elbow=horizontal;curved=0;entryX=1;entryY=1;entryDx=0;entryDy=0;" edge="1" parent="1" target="0YgiuBvHB2j14HiR7saE-19">
          <mxGeometry relative="1" as="geometry">
            <mxPoint x="1330" y="630" as="sourcePoint" />
            <mxPoint x="1569.5" y="630.004347826087" as="targetPoint" />
            <Array as="points">
              <mxPoint x="1330" y="630" />
            </Array>
          </mxGeometry>
        </mxCell>
        <mxCell id="0YgiuBvHB2j14HiR7saE-19" value="5 : buscarGrupo(grupo)" style="text;whiteSpace=wrap;html=1;" vertex="1" parent="1">
          <mxGeometry x="1340" y="600" width="160" height="30" as="geometry" />
        </mxCell>
        <mxCell id="0YgiuBvHB2j14HiR7saE-21" style="edgeStyle=elbowEdgeStyle;rounded=0;orthogonalLoop=1;jettySize=auto;html=1;elbow=vertical;curved=0;" edge="1" parent="1">
          <mxGeometry relative="1" as="geometry">
            <mxPoint x="1030" y="650.004347826087" as="sourcePoint" />
            <mxPoint x="800" y="650" as="targetPoint" />
          </mxGeometry>
        </mxCell>
        <mxCell id="0YgiuBvHB2j14HiR7saE-22" value="8 : fecharListaGrupos()" style="text;whiteSpace=wrap;html=1;" vertex="1" parent="1">
          <mxGeometry x="850" y="620" width="140" height="40" as="geometry" />
        </mxCell>
        <mxCell id="0YgiuBvHB2j14HiR7saE-23" value=": Grupo" style="shape=umlLifeline;perimeter=lifelinePerimeter;whiteSpace=wrap;html=1;container=0;dropTarget=0;collapsible=0;recursiveResize=0;outlineConnect=0;portConstraint=eastwest;newEdgeStyle={&quot;edgeStyle&quot;:&quot;elbowEdgeStyle&quot;,&quot;elbow&quot;:&quot;vertical&quot;,&quot;curved&quot;:0,&quot;rounded&quot;:0};" vertex="1" parent="1">
          <mxGeometry x="1450" y="420" width="130" height="300" as="geometry" />
        </mxCell>
        <mxCell id="0YgiuBvHB2j14HiR7saE-24" value="" style="html=1;points=[];perimeter=orthogonalPerimeter;outlineConnect=0;targetShapes=umlLifeline;portConstraint=eastwest;newEdgeStyle={&quot;edgeStyle&quot;:&quot;elbowEdgeStyle&quot;,&quot;elbow&quot;:&quot;vertical&quot;,&quot;curved&quot;:0,&quot;rounded&quot;:0};" vertex="1" parent="0YgiuBvHB2j14HiR7saE-23">
          <mxGeometry x="60" y="210" width="10" height="40" as="geometry" />
        </mxCell>
        <mxCell id="0YgiuBvHB2j14HiR7saE-25" style="edgeStyle=elbowEdgeStyle;rounded=0;orthogonalLoop=1;jettySize=auto;html=1;elbow=vertical;curved=0;" edge="1" parent="1" source="0YgiuBvHB2j14HiR7saE-24" target="0YgiuBvHB2j14HiR7saE-16">
          <mxGeometry relative="1" as="geometry">
            <Array as="points">
              <mxPoint x="1640" y="670" />
            </Array>
          </mxGeometry>
        </mxCell>
        <mxCell id="0YgiuBvHB2j14HiR7saE-27" value="Usuario" style="shape=umlActor;verticalLabelPosition=bottom;verticalAlign=top;html=1;" vertex="1" parent="1">
          <mxGeometry x="580" y="400" width="30" height="60" as="geometry" />
        </mxCell>
        <mxCell id="0YgiuBvHB2j14HiR7saE-28" value="" style="endArrow=none;dashed=1;endFill=0;endSize=12;html=1;rounded=0;startFill=0;" edge="1" parent="1">
          <mxGeometry width="160" relative="1" as="geometry">
            <mxPoint x="595" y="490" as="sourcePoint" />
            <mxPoint x="595" y="730" as="targetPoint" />
            <Array as="points">
              <mxPoint x="595" y="600" />
            </Array>
          </mxGeometry>
        </mxCell>
        <mxCell id="0YgiuBvHB2j14HiR7saE-29" value="" style="endArrow=open;endFill=1;endSize=12;html=1;rounded=0;" edge="1" parent="1">
          <mxGeometry width="160" relative="1" as="geometry">
            <mxPoint x="600" y="490" as="sourcePoint" />
            <mxPoint x="780" y="490" as="targetPoint" />
          </mxGeometry>
        </mxCell>
        <mxCell id="0YgiuBvHB2j14HiR7saE-30" value="Iniciar &quot;selecionar grupo&quot;" style="text;whiteSpace=wrap;html=1;" vertex="1" parent="1">
          <mxGeometry x="610" y="490" width="160" height="40" as="geometry" />
        </mxCell>
        <mxCell id="0YgiuBvHB2j14HiR7saE-31" value="6 :recuperaPersonagens()" style="text;whiteSpace=wrap;html=1;" vertex="1" parent="1">
          <mxGeometry x="1530" y="630" width="180" height="30" as="geometry" />
        </mxCell>
        <mxCell id="0YgiuBvHB2j14HiR7saE-32" value="umaBatalha:Batalha" style="shape=umlLifeline;perimeter=lifelinePerimeter;whiteSpace=wrap;html=1;container=0;dropTarget=0;collapsible=0;recursiveResize=0;outlineConnect=0;portConstraint=eastwest;newEdgeStyle={&quot;edgeStyle&quot;:&quot;elbowEdgeStyle&quot;,&quot;elbow&quot;:&quot;vertical&quot;,&quot;curved&quot;:0,&quot;rounded&quot;:0};" vertex="1" parent="1">
          <mxGeometry x="1890" y="420" width="130" height="300" as="geometry" />
        </mxCell>
        <mxCell id="0YgiuBvHB2j14HiR7saE-34" style="edgeStyle=elbowEdgeStyle;rounded=0;orthogonalLoop=1;jettySize=auto;html=1;elbow=vertical;curved=0;" edge="1" parent="1" target="0YgiuBvHB2j14HiR7saE-32">
          <mxGeometry relative="1" as="geometry">
            <mxPoint x="1720" y="690" as="sourcePoint" />
            <mxPoint x="1914.5000000000005" y="690" as="targetPoint" />
          </mxGeometry>
        </mxCell>
        <mxCell id="0YgiuBvHB2j14HiR7saE-35" value="7 : adicionaPersonagem(batalha)" style="text;whiteSpace=wrap;html=1;" vertex="1" parent="1">
          <mxGeometry x="1730" y="660" width="210" height="20" as="geometry" />
        </mxCell>
      </root>
    </mxGraphModel>
  </diagram>
</mxfile>
